<?xml version="1.0" encoding="UTF-8" standalone="no"?>
<!-- Created with Inkscape (http://www.inkscape.org/) -->

<svg
   xmlns:dc="http://purl.org/dc/elements/1.1/"
   xmlns:cc="http://creativecommons.org/ns#"
   xmlns:rdf="http://www.w3.org/1999/02/22-rdf-syntax-ns#"
   xmlns:svg="http://www.w3.org/2000/svg"
   xmlns="http://www.w3.org/2000/svg"
   xmlns:sodipodi="http://sodipodi.sourceforge.net/DTD/sodipodi-0.dtd"
   xmlns:inkscape="http://www.inkscape.org/namespaces/inkscape"
   width="163.10678mm"
   height="159.17912mm"
   viewBox="0 0 163.10678 159.17912"
   version="1.1"
   id="svg8"
   inkscape:version="0.92.5 (2060ec1f9f, 2020-04-08)"
   sodipodi:docname="logo.svg"
   inkscape:export-filename="/home/eduardo/Documentos/streamlit-chat/src/ui/assets/LOGO_FILEPATH"
   inkscape:export-xdpi="90"
   inkscape:export-ydpi="90">
  <defs
     id="defs2" />
  <sodipodi:namedview
     id="base"
     pagecolor="#ffffff"
     bordercolor="#666666"
     borderopacity="1.0"
     inkscape:pageopacity="0.0"
     inkscape:pageshadow="2"
     inkscape:zoom="0.35"
     inkscape:cx="607.46322"
     inkscape:cy="138.44129"
     inkscape:document-units="mm"
     inkscape:current-layer="layer1"
     showgrid="false"
     inkscape:window-width="1920"
     inkscape:window-height="1016"
     inkscape:window-x="0"
     inkscape:window-y="27"
     inkscape:window-maximized="1"
     fit-margin-top="0"
     fit-margin-left="0"
     fit-margin-right="0"
     fit-margin-bottom="0" />
  <metadata
     id="metadata5">
    <rdf:RDF>
      <cc:Work
         rdf:about="">
        <dc:format>image/svg+xml</dc:format>
        <dc:type
           rdf:resource="http://purl.org/dc/dcmitype/StillImage" />
        <dc:title />
      </cc:Work>
    </rdf:RDF>
  </metadata>
  <g
     inkscape:label="Camada 1"
     inkscape:groupmode="layer"
     id="layer1"
     transform="translate(-29.099553,259.72159)">
    <g
       id="g851">
      <path
         inkscape:connector-curvature="0"
         id="path830"
         d="m 135.87373,-252.61883 c 28.19693,-4.00904 23.25245,-3.4745 28.19693,-4.00904 4.94449,-0.53454 4.94449,-0.53454 4.94449,-0.53454 l 15.90253,4.81085 2.93997,17.23889 -2.13816,18.04069 -9.35443,4.94449 c 0,0 -26.72695,-1.20272 -29.66692,-0.80181 -2.93996,0.4009 -2.93996,0.53453 -2.93996,0.53453 l -13.36348,8.01809 1.73725,-17.50615 -1.35219,-25.59187 5.89578,-5.54503 z"
         style="fill:#ffffff;stroke:#000000;stroke-width:0.26458332px;stroke-linecap:butt;stroke-linejoin:miter;stroke-opacity:1" />
      <path
         inkscape:connector-curvature="0"
         id="path832"
         d="m 52.160714,-132.56994 56.129466,-44.03423 -0.37798,-74.08333 c 0,0 -2.64583,-0.37797 -11.90625,0.56697 -9.260416,0.94494 -9.260416,0.94494 -9.260416,0.94494 l -34.206844,20.03273 -16.252975,29.10417 c 0,0 -4.535715,11.71726 -3.96875,24.56845 0.566962,12.85119 0.566962,12.85119 0.566962,12.85119 z"
         style="fill:#ff4237;fill-opacity:1;stroke:#000000;stroke-width:0.26458332px;stroke-linecap:butt;stroke-linejoin:miter;stroke-opacity:1" />
      <path
         inkscape:connector-curvature="0"
         id="path832-3-6"
         d="m 32.328315,-175.21487 0.555545,12.59562 19.276854,30.04931 16.291507,-12.78112 a 70.843787,59.983668 0 0 1 -36.123906,-29.86381 z"
         style="fill:#d40000;fill-opacity:1;stroke:none;stroke-width:0.26458332px;stroke-linecap:butt;stroke-linejoin:miter;stroke-opacity:1" />
      <path
         inkscape:connector-curvature="0"
         id="path834"
         d="m 142.85556,-114.06053 -37.2841,-60.80382 -53.410746,42.29441 9.578547,13.03038 c 0,0 19.911578,10.82442 29.666916,12.2944 9.755343,1.46998 9.755343,1.46998 9.755343,1.46998 l 23.65335,-0.4009 z"
         style="fill:#9ae22f;fill-opacity:1;stroke:#000000;stroke-width:0.26458332px;stroke-linecap:butt;stroke-linejoin:miter;stroke-opacity:1" />
      <path
         inkscape:connector-curvature="0"
         id="path834-5-9"
         d="m 123.80303,-145.13142 a 70.843787,59.983668 0 0 1 -1.6831,0.63767 70.843787,59.983668 0 0 1 -6.72,1.89085 70.843787,59.983668 0 0 1 -6.90966,1.3131 70.843787,59.983668 0 0 1 -7.03006,0.72244 70.843787,59.983668 0 0 1 -5.01055,0.15037 70.843787,59.983668 0 0 1 -7.07244,-0.30695 70.843787,59.983668 0 0 1 -7.0006,-0.90331 70.843787,59.983668 0 0 1 -6.85901,-1.49035 70.843787,59.983668 0 0 1 -6.64921,-2.06293 70.843787,59.983668 0 0 1 -0.51521,-0.21134 l -16.1923,12.82194 9.57823,13.03073 c 0,0 19.91158,10.82437 29.66692,12.29434 l 9.75548,1.46968 23.65333,-0.40047 18.04076,-7.8848 z"
         style="fill:#1db741;fill-opacity:1;stroke:none;stroke-width:0.26458332px;stroke-linecap:butt;stroke-linejoin:miter;stroke-opacity:1" />
      <path
         inkscape:connector-curvature="0"
         id="path836"
         d="m 108.29018,-176.60417 c 24.40914,-4.54101 24.40914,-4.54101 24.40914,-4.54101 l 47.84124,2.00452 -3.87541,26.59332 -8.41898,17.50615 -22.45065,20.57975 z"
         style="fill:#feda32;fill-opacity:1;stroke:#000000;stroke-width:0.26458332px;stroke-linecap:butt;stroke-linejoin:miter;stroke-opacity:1" />
      <path
         inkscape:connector-curvature="0"
         id="path836-7-2"
         d="m 162.92386,-179.87901 a 70.843787,59.983668 0 0 1 -36.28666,33.67339 l 19.15851,31.74381 22.45032,-20.57964 8.41912,-17.50589 3.87522,-26.59375 z"
         style="fill:#ffb014;fill-opacity:1;stroke:none;stroke-width:0.26458332px;stroke-linecap:butt;stroke-linejoin:miter;stroke-opacity:1" />
      <path
         sodipodi:nodetypes="csccccccc"
         inkscape:connector-curvature="0"
         id="path838"
         d="m 170.84524,-212.70089 c 0,0 6.93563,5.37131 8.31547,19.46577 l 1.37985,14.09446 -72.25038,2.53649 -0.37798,-74.08333 22.86756,3.2128 -2.45684,47.81399 22.63131,-13.96623 z"
         style="fill:#40e3ff;fill-opacity:1;stroke:#40e1ff;stroke-width:0.26458332px;stroke-linecap:butt;stroke-linejoin:miter;stroke-opacity:1" />
      <path
         inkscape:connector-curvature="0"
         id="path838-6-0"
         d="m 165.69838,-212.9411 a 70.843787,59.983668 0 0 1 1.59422,12.54032 70.843787,59.983668 0 0 1 -4.963,21.89893 l 18.21077,-0.63924 -1.38028,-14.09422 c -1.37983,-14.09446 -8.31524,-19.466 -8.31524,-19.466 z"
         style="fill:#0791eb;fill-opacity:1;stroke:none;stroke-width:0.26458332px;stroke-linecap:butt;stroke-linejoin:miter;stroke-opacity:1" />
      <path
         sodipodi:nodetypes="csssssscccsccccccscsscscccccsccscccscccsscscccsccccscscccssscssccscccscscccscccscccccccccscccccccscscsccccscccccscccccccacc"
         inkscape:connector-curvature="0"
         id="path826"
         d="m 98.897458,-100.85971 c -10.28915,-1.27975 -21.00117,-4.72235 -29.60997,-9.51598 -3.34374,-1.86189 -8.58854,-5.36153 -11.53273,-7.69532 -3.00505,-2.38203 -10.02598,-9.44965 -12.28164,-12.36331 -5.46177,-7.05502 -8.94804,-13.24505 -11.88423,-21.10099 -6.70276,-17.93357 -5.86479,-38.79697 2.2783,-56.72437 8.69002,-19.13148 26.11543,-34.70359 46.76965,-41.79539 14.93295,-5.12735 28.164242,-5.89247 43.072302,-2.49071 1.94059,0.4428 3.55232,0.76567 3.58162,0.71748 1.55752,-2.5618 3.88143,-4.77217 6.40294,-6.09008 3.59915,-1.88117 2.53967,-1.80275 24.35687,-1.80275 h 19.64978 l 2.08493,0.65862 c 4.84495,1.53052 8.7451,5.55769 10.13092,10.46087 0.42854,1.51619 0.36408,26.20063 -0.0732,28.03884 -0.99297,4.17407 -4.62385,8.60818 -8.63863,10.54968 -1.21102,0.58564 -2.84587,1.20892 -3.63302,1.38507 -0.78715,0.17616 -1.43117,0.40364 -1.43117,0.50551 0,0.10187 0.40349,1.06519 0.89664,2.14071 4.24631,9.26079 6.53066,20.98558 6.15449,31.58882 -0.20003,5.63826 -0.62874,9.0444 -1.74833,13.89062 -1.44625,6.2602 -3.11877,10.97474 -5.81948,16.40417 -5.96861,11.99907 -14.75103,22.18556 -25.80936,29.93557 -9.59033,6.72119 -21.10279,11.24985 -33.25719,13.08239 -3.99119,0.60177 -15.55183,0.73146 -19.659482,0.22055 z m 15.348182,-8.43659 c 4.78527,-0.48697 9.52208,-1.45432 13.76778,-2.81165 7.95082,-2.54183 9.09721,-3.95292 6.64893,-8.18418 -5.39332,-9.32107 -20.92356,-35.34092 -26.1076,-43.74151 -2.2044,-3.57218 -3.14947,-4.35425 -4.87138,-4.03122 -0.63421,0.11898 -5.005462,3.46692 -15.667462,11.99968 -8.13331,6.50907 -16.87035,13.49624 -19.41564,15.52705 -2.54529,2.0308 -5.719,4.56521 -7.05267,5.63201 -3.08919,2.47102 -3.5984,3.67716 -2.4789,5.87157 1.56817,3.07386 14.05942,11.29544 22.28131,14.66526 10.74281,4.40305 22.166942,6.16482 32.895632,5.07299 z m 34.27554,-13.32339 c 0.64695,-0.41055 2.24784,-1.64049 3.55753,-2.73318 6.03064,-5.03147 10.85058,-10.67861 15.06186,-17.64682 4.89444,-8.0986 7.46652,-15.76171 8.77076,-26.13119 0.4018,-3.19457 0.40257,-3.54025 0.01,-4.36807 -0.85813,-1.80838 1.34839,-1.68051 -30.34489,-1.75853 l -28.72754,-0.0707 -0.9023,0.60807 c -1.0066,0.67834 -1.46283,1.65127 -1.2228,2.60764 0.0877,0.34928 5.73135,9.92076 12.54152,21.26997 6.81017,11.3492 13.30578,22.20341 14.43468,24.12047 1.1289,1.91705 2.41708,3.79229 2.86262,4.16718 1.10199,0.92727 2.42973,0.90553 3.95882,-0.0648 z m -94.943522,-17.36509 c 2.59846,-2.18843 18.25725,-14.81858 20.02513,-16.15198 1.52076,-1.14701 10.51572,-8.30769 14.84363,-11.81668 6.46153,-5.23888 14.240452,-12.02301 15.667342,-12.77788 0.0802,-14.13485 0.007,-2.57114 0.24727,-31.42963 0.042,-29.96372 0.0164,-31.97854 -0.4134,-32.45343 -0.9222,-1.01901 -1.86403,-1.19801 -4.483262,-0.85204 -16.00394,2.11394 -31.08406,9.81019 -42.63656,21.75991 -10.68097,11.04821 -16.37503,22.69596 -18.54541,37.93642 -0.67658,4.75099 -0.62281,13.16958 0.11491,17.99166 1.42678,9.32598 4.27299,17.38512 8.64336,24.47396 2.97611,4.82732 4.08079,5.38831 6.53699,3.31969 z m 119.358992,-44.48863 c 3.06453,-0.23308 3.07392,-0.25288 2.18973,-4.61571 -1.16729,-5.75965 -2.87205,-10.82887 -5.44598,-16.19399 l -1.11068,-2.31511 h -10.5284 -10.5284 l -4.37079,3.24115 c -2.40393,1.78263 -6.31089,4.61036 -8.68214,6.28385 -2.37123,1.67349 -5.90956,4.2096 -7.86294,5.63581 -1.95337,1.4262 -3.62011,2.52458 -3.70385,2.44083 -0.0837,-0.0837 0.18026,-1.90548 0.58666,-4.0483 0.94465,-4.98076 2.45907,-13.3713 2.87605,-15.93459 0.23468,-1.44266 0.30257,-6.28656 0.2487,-17.74371 l -0.0741,-15.75934 -1.78089,-0.57357 c -2.48373,-0.79994 -8.13178,-1.72458 -9.25139,-1.51454 -0.50445,0.0946 -1.20154,0.45642 -1.54908,0.80396 l -0.6319,0.6319 v 29.86459 29.86459 l 28.64115,0.055 c 15.75263,0.0302 29.69284,-0.025 30.97825,-0.12279 z m -35.19328,-27.27908 c 3.04328,-2.26114 4.26006,-3.0004 6.55952,-3.98526 l 1.6904,-0.72401 15.74271,-0.1403 c 14.35273,-0.12791 15.85354,-0.18262 16.99794,-0.61966 1.7461,-0.66682 3.69902,-2.50146 4.46352,-4.19319 l 0.63125,-1.39685 v -11.24479 -11.24479 l -0.62528,-1.38299 c -0.76954,-1.70205 -2.41983,-3.26526 -4.15274,-3.93361 -1.23946,-0.47803 -2.23543,-0.50423 -19.16677,-0.50423 -16.96925,0 -17.92494,0.0253 -19.17484,0.50732 -1.72822,0.6665 -3.63386,2.48048 -4.41077,4.19862 l -0.62377,1.37947 -0.16271,15.875 c -0.10415,10.16136 -0.26945,16.35114 -0.45927,17.19792 -0.16311,0.7276 -0.36255,1.60078 -0.44321,1.94039 -0.1778,0.74867 -0.2669,0.79783 3.13402,-1.72904 z m 9.67811,-18.9403 c -2.60401,-1.75233 -1.29651,-6.27418 1.81418,-6.27418 2.14475,0 3.52333,1.34186 3.55253,3.4579 0.037,2.67756 -3.11494,4.33158 -5.36671,2.81628 z m 10.42476,0.10225 c -2.15134,-1.35167 -2.16688,-4.51425 -0.0288,-5.8562 1.38839,-0.87139 3.23173,-0.60431 4.36514,0.63245 0.71857,0.7841 0.87631,1.16899 0.87631,2.13828 0,0.65013 -0.12721,1.45555 -0.28268,1.78982 -0.74106,1.59333 -3.36051,2.28175 -4.93,1.29565 z m 10.31875,-0.0157 c -1.18011,-0.71955 -1.75659,-1.93855 -1.59496,-3.37258 0.14855,-1.31786 0.74039,-2.10712 1.97049,-2.62777 1.11898,-0.47361 1.97497,-0.45497 3.06926,0.0669 3.13694,1.4959 1.8111,6.45496 -1.7247,6.45095 -0.48017,-5.3e-4 -1.25421,-0.2334 -1.72009,-0.51747 z"
         style="fill:#000000;stroke-width:0.26458332" />
    </g>
  </g>
</svg>
